# xmcd
#
# Track frame offsets:
#	167
#	12407
#	23105
#	37030
#	54050
#	69507
#	83682
#	96392
#	106985
#	122107
#	134365
#	145690
#	166297
#
# Disc length: 2539 seconds
#
# Revision: 1
# Processed by: cddbd v1.5.2PL0 Copyright (c) Steve Scherf et al.
# Submitted via: audiograbber 1.83.01
#
DISCID=a709e90d
DTITLE=Eddie Crook CD Sampler - Volume 1993-02
DYEAR=1900
DGENRE=Gospel
TTITLE0=Carroll Roberson - He's Still God
TTITLE1=Bradleys - I'll Just Trust In The Lord
TTITLE2=Big Moe - Soldier Of The Cross
TTITLE3=Bells - Throne Room Of Grace
TTITLE4=First Love Revival - The Midas Touch
TTITLE5=Jubilee Echoes - Let Me In
TTITLE6=Robin Slaghter - Satan Has No Hold On Me
TTITLE7=Phillips Family - Have You Been To The River
TTITLE8=New Harmony - When The Heart Cries
TTITLE9=Randell Aktins - I've Got My Eyes On Home
TTITLE10=Gospel Carriers - Carry On
TTITLE11=Pat Jones - God Will Make This Trial A Blessing
TTITLE12=Mr Moe - Soldier Of the Cross
EXTD=
EXTT0=
EXTT1=
EXTT2=
EXTT3=
EXTT4=
EXTT5=
EXTT6=
EXTT7=
EXTT8=
EXTT9=
EXTT10=
EXTT11=
EXTT12=
PLAYORDER=
